<?xml version="1.0" encoding="UTF-8"?>
<svg width="980px" height="260px" viewBox="0 0 980 260" version="1.1" xmlns="http://www.w3.org/2000/svg" xmlns:xlink="http://www.w3.org/1999/xlink">
    <!-- Generator: Sketch 50.2 (55047) - http://www.bohemiancoding.com/sketch -->
    <title>logo</title>
    <desc>Created with Sketch.</desc>
    <defs></defs>
    <g id="Symbols" stroke="none" stroke-width="1" fill="none" fill-rule="evenodd">
        <g id="logo" fill="#FFFFFF" fill-rule="nonzero">
            <path d="M130,260 C58.2556391,260 0,201.548872 0,130 C0,58.2556391 58.2556391,0 130,0 C201.548872,0 260,58.2556391 260,130 C260,201.548872 201.548872,260 130,260 Z M130,18.962406 C68.6165414,18.962406 18.962406,68.6165414 18.962406,130 C18.962406,191.383459 68.8120301,241.037594 130,241.037594 C191.18797,241.037594 241.037594,191.18797 241.037594,130 C241.037594,68.8120301 191.18797,18.962406 130,18.962406 Z" id="Shape"></path>
            <path d="M152.829095,221.491892 C152.829095,227.488288 153.404977,233.484685 154.172819,239.293694 C145.15067,241.542342 135.552639,242.666667 125.762647,242.666667 C115.972655,242.666667 106.566585,241.542342 97.5444353,239.293694 C98.5042384,233.484685 98.8881597,227.488288 98.8881597,221.304505 C98.8881597,166.962162 60.496035,121.427027 8.66666667,109.059459 C11.1621548,94.818018 16.153131,81.3261261 23.4476347,69.3333333 C43.9874214,103.625225 82.1875855,126.861261 125.762647,126.861261 C169.529669,126.861261 207.729833,103.625225 228.077659,69.3333333 C235.372163,81.5135135 240.363139,95.0054054 242.666667,109.434234 C191.22122,121.801802 152.829095,167.336937 152.829095,221.491892 Z" id="Shape"></path>
            <circle id="Oval" cx="125.666667" cy="91" r="30.3333333"></circle>
            <path d="M969.985019,91.6250871 C965.116105,91.6250871 962.389513,94.8939886 961.026217,98.7397551 L940.382022,152.772775 L918.179775,98.7397551 C916.426966,94.509412 913.895131,91.6250871 909.026217,91.6250871 C903.76779,91.6250871 899.677903,95.4708536 899.677903,100.662638 C899.677903,101.816368 900.067416,103.739252 900.846442,105.08527 L931.423221,172.578472 L930.838951,174.309067 C927.722846,180.654582 924.801498,182.962042 919.153558,182.962042 C916.426966,182.962042 909.220974,182.962042 907.662921,182.962042 C903.573034,182.962042 900.067416,186.038655 900.067416,190.653575 C900.067416,195.076206 903.183521,197.191378 905.910112,198.345108 C909.805243,199.883414 916.23221,199.114261 921.490637,199.306549 C936.097378,199.498838 941.355805,192.768746 948.367041,176.23195 L978.554307,104.892982 C978.94382,103.93154 979.333333,102.008657 979.333333,100.47035 C979.138577,95.4708536 975.048689,91.6250871 969.985019,91.6250871 Z M394.674157,62.2049733 C389.610487,62.2049733 385.520599,66.0507398 385.520599,71.2425246 L385.520599,101.431792 C380.846442,96.6245836 374.808989,92.5865287 361.565543,92.2019521 C342.284644,91.8173754 320.666667,106.623577 320.666667,132.967077 L320.666667,133.351654 C320.666667,159.695154 342.674157,174.693644 361.565543,174.693644 C367.213483,174.693644 380.456929,173.92449 390.58427,165.079228 C401.88015,155.272523 404.022472,138.735727 404.022472,133.73623 L404.022472,71.2425246 C404.022472,66.0507398 399.932584,62.2049733 394.674157,62.2049733 Z M361.370787,158.349136 C347.737828,158.349136 336.636704,147.388702 336.636704,133.928519 C336.636704,120.468336 347.737828,109.507901 361.370787,109.507901 C375.003745,109.507901 386.104869,120.468336 386.104869,133.928519 C386.104869,147.388702 375.003745,158.349136 361.370787,158.349136 Z M779.513109,62.7818382 C774.449438,62.7818382 770.359551,66.6276048 770.359551,71.8193896 L770.554307,102.008657 C766.464419,97.9706018 758.674157,92.7788171 746.209738,92.7788171 C727.123596,92.5865287 705.895131,107.200441 705.895131,133.351654 L705.895131,133.73623 C705.895131,159.887443 727.707865,174.885932 746.599251,174.885932 C755.752809,174.885932 765.29588,173.732202 775.228464,165.463804 C787.108614,155.849388 788.861423,139.120304 788.861423,133.928519 L788.861423,71.8193896 C788.861423,66.8198931 784.771536,62.7818382 779.513109,62.7818382 Z M746.404494,158.349136 C732.771536,158.349136 721.865169,147.58099 721.865169,134.120807 C721.865169,120.660624 732.966292,109.892478 746.404494,109.892478 C760.037453,109.892478 770.94382,120.852913 770.94382,134.120807 C771.138577,147.58099 760.037453,158.349136 746.404494,158.349136 Z M877.086142,62.7818382 C872.022472,62.7818382 867.932584,66.6276048 867.932584,71.8193896 L867.932584,101.239503 C863.06367,97.5860252 857.026217,92.2019521 843.977528,92.2019521 C824.891386,92.2019521 803.662921,107.008153 803.662921,133.159365 L803.662921,133.543942 C803.662921,159.695154 825.475655,174.501355 844.172285,174.501355 C853.910112,174.501355 862.674157,172.770761 872.411985,165.271516 C883.707865,156.81083 886.2397,138.928015 886.2397,133.928519 L886.2397,71.8193896 C886.434457,66.6276048 882.344569,62.7818382 877.086142,62.7818382 Z M844.172285,157.964559 C830.734082,157.964559 819.632959,147.196413 819.632959,133.73623 C819.632959,120.468336 830.539326,109.507901 844.172285,109.507901 C857.610487,109.507901 868.71161,120.276048 868.71161,133.73623 C868.71161,147.196413 857.610487,157.964559 844.172285,157.964559 Z M683.303371,157.772271 L645.715356,157.772271 L645.715356,140.65861 L677.265918,140.65861 C681.745318,140.65861 685.445693,137.19742 685.445693,132.774789 C685.445693,128.352157 681.745318,124.698679 677.265918,124.698679 L645.715356,124.698679 L645.715356,108.354171 L682.719101,108.354171 C687.198502,108.354171 690.898876,104.508405 690.898876,100.085773 C690.898876,95.6631419 687.198502,92.0096638 682.719101,92.0096638 L636.756554,92.0096638 C631.692884,92.0096638 627.602996,96.0477186 627.602996,101.047215 L627.602996,164.886939 C627.602996,169.886436 631.692884,173.92449 636.756554,173.92449 L683.303371,173.92449 C687.782772,173.92449 691.483146,170.463301 691.483146,166.040669 C691.483146,161.233461 687.782772,157.772271 683.303371,157.772271 Z M599.168539,91.6250871 C594.299625,91.6250871 591.76779,94.7017003 590.404494,97.9706018 L569.370787,151.04218 L548.531835,98.1628902 C546.973783,94.3171237 544.441948,91.6250871 539.378277,91.6250871 C534.314607,91.6250871 530.224719,95.8554303 530.224719,100.278062 C530.224719,102.008657 530.808989,103.546963 531.198502,104.892982 L558.074906,165.656092 C560.217228,170.463301 563.52809,173.539914 568.59176,173.539914 L569.565543,173.539914 C574.629213,173.539914 577.940075,170.271012 580.082397,165.656092 L606.958801,104.700693 C607.348315,103.739252 607.932584,102.008657 607.932584,100.278062 C608.127341,95.4708536 604.23221,91.6250871 599.168539,91.6250871 Z M499.06367,92.2019521 C493.805243,92.2019521 489.910112,96.2400069 489.910112,101.431792 L489.910112,164.502363 C489.910112,169.694147 494,173.539914 499.06367,173.539914 C504.322097,173.539914 508.411985,169.694147 508.411985,164.502363 L508.411985,101.431792 C508.411985,96.2400069 504.322097,92.2019521 499.06367,92.2019521 Z M459.138577,91.6250871 C451.153558,91.6250871 443.168539,99.1243318 438.883895,109.123325 L438.883895,101.047215 C438.883895,95.8554303 434.794007,91.8173754 429.535581,91.8173754 C424.277154,91.8173754 420.382022,95.8554303 420.382022,101.047215 L420.382022,164.117786 C420.382022,169.309571 424.47191,173.155337 429.535581,173.155337 C434.794007,173.155337 438.883895,169.117282 438.883895,164.117786 L438.883895,140.466322 C438.883895,121.622066 447.842697,111.623073 461.086142,109.315613 C465.17603,108.54646 468.486891,105.469847 468.486891,100.662638 C468.486891,95.4708536 464.981273,91.6250871 459.138577,91.6250871 Z M509.385768,68.550488 L509.385768,69.3196413 C509.385768,74.1268495 505.29588,77.395751 500.037453,77.395751 C494.779026,77.395751 490.689139,74.1268495 490.689139,69.3196413 L490.689139,68.550488 C490.689139,63.7432799 494.779026,60.6666667 500.037453,60.6666667 C505.29588,60.6666667 509.385768,63.7432799 509.385768,68.550488 Z" id="Shape"></path>
        </g>
    </g>
</svg>